<svg width="25" height="24" viewBox="0 0 25 24" fill="none" xmlns="http://www.w3.org/2000/svg">
<path fill-rule="evenodd" clip-rule="evenodd" d="M8.04744 3H21.689C23.2486 3 24.5 4.23117 24.5 5.73684V18.2632C24.5 19.7688 23.2486 21 21.689 21H8.04744C7.09953 21 6.29204 20.536 5.76371 19.7706L0.5 11.9955L5.76858 4.21329C6.29051 3.4573 7.09922 3 8.04744 3ZM22.5168 5.73663C22.5168 5.26494 22.1403 4.89453 21.6901 4.89453H8.04851C7.79985 4.89453 7.59636 5.0096 7.43113 5.24885L2.86382 11.9953L2.51562 11.481V12.5096L2.86382 11.9953L7.42626 18.7346C7.60025 18.9866 7.80625 19.105 8.04851 19.105H21.6901C22.1403 19.105 22.5168 18.7346 22.5168 18.2629V5.73663Z" fill="#474747"/>
<path fill-rule="evenodd" clip-rule="evenodd" d="M19.0465 15.0128L17.7344 16.2639L14.41 13.0941L11.0856 16.2639L9.77344 15.0128L13.0978 11.8429L9.77344 8.67303L11.0856 7.42188L14.41 10.5918L17.7344 7.42188L19.0465 8.67303L15.7221 11.8429L19.0465 15.0128Z" fill="#474747"/>
</svg>
