<svg width="20" height="20" viewBox="0 0 24 24" fill="none" xmlns="http://www.w3.org/2000/svg">
  <!-- Hand-drawn backspace key -->
  <path d="M21.8 5.2c-.1 4.5.1 9-.1 13.5-.1.6-.5 1.1-1.1 1.2-3.6-.1-7.3.1-10.9-.1-.5-.1-.9-.4-1.2-.8-1.7-2.3-3.5-4.5-5.2-6.8.1-.3.2-.5.4-.7 1.8-2.2 3.5-4.5 5.3-6.7.3-.4.7-.6 1.2-.7 3.5.1 7.1-.1 10.6.1.5.1 1 .5 1 1" stroke="currentColor" stroke-width="1.5" stroke-linecap="round"/>
  <path d="M11.2 9.1c1.3 1.2 2.5 2.6 3.8 3.9" stroke="currentColor" stroke-width="1.5" stroke-linecap="round"/>
  <path d="M15.1 9.2c-1.2 1.3-2.6 2.5-3.9 3.8" stroke="currentColor" stroke-width="1.5" stroke-linecap="round"/>
</svg>
