<svg width="20" height="20" viewBox="0 0 24 24" fill="none" xmlns="http://www.w3.org/2000/svg">
  <!-- Hand-drawn closed eye with strike-through -->
  <path d="M2.2 12.1c1.8-2.4 4.1-4.5 6.8-5.8 1.9-.9 4.1-1.3 6.2-1 2.1.3 4.1 1.2 5.8 2.6 1.4 1.2 2.6 2.6 3.5 4.2-1.7 2.3-3.9 4.3-6.5 5.6-2 1-4.2 1.4-6.4 1.1-2.1-.3-4.1-1.2-5.8-2.5-1.4-1.2-2.7-2.6-3.6-4.2" stroke="currentColor" stroke-width="1.5" stroke-linecap="round"/>
  <path d="M3.1 3.2c5.9 5.8 11.7 11.8 17.6 17.6" stroke="currentColor" stroke-width="1.5" stroke-linecap="round"/>
</svg>
