<svg width="20" height="20" viewBox="0 0 24 24" fill="none" xmlns="http://www.w3.org/2000/svg">
  <!-- Hand-drawn open eye -->
  <path d="M2.2 12.1c1.8-2.4 4.1-4.5 6.8-5.8 1.9-.9 4.1-1.3 6.2-1 2.1.3 4.1 1.2 5.8 2.6 1.4 1.2 2.6 2.6 3.5 4.2-1.7 2.3-3.9 4.3-6.5 5.6-2 1-4.2 1.4-6.4 1.1-2.1-.3-4.1-1.2-5.8-2.5-1.4-1.2-2.7-2.6-3.6-4.2" stroke="currentColor" stroke-width="1.5" stroke-linecap="round"/>
  <path d="M12.1 8.2c1.1.1 2.1.6 2.8 1.4.7.8 1.1 1.8 1 2.9-.1 1-.5 2-1.3 2.7-.8.7-1.8 1.1-2.9 1-1-.1-2-.5-2.7-1.3-.7-.8-1-1.8-.9-2.9.1-1 .6-1.9 1.3-2.6.8-.7 1.7-1.1 2.7-1.2" stroke="currentColor" stroke-width="1.5" stroke-linecap="round"/>
</svg>
