<svg width="20" height="20" viewBox="0 0 24 24" fill="none" xmlns="http://www.w3.org/2000/svg">
  <!-- Hand-drawn info icon -->
  <path d="M12.1 2.2c2.7.1 5.2 1.2 7 3.1 1.8 1.9 2.8 4.4 2.7 7-.1 2.6-1.2 5.1-3 6.9-1.9 1.9-4.4 2.9-7.1 2.8-2.6-.1-5-1.3-6.8-3.2-1.8-1.9-2.7-4.5-2.6-7.1.1-2.5 1.2-4.9 3-6.7 1.8-1.8 4.2-2.8 6.8-2.8" stroke="currentColor" stroke-width="1.5" stroke-linecap="round"/>
  <path d="M11.8 7.1c.5-.2 1.1.1 1.3.5.2.5 0 1-.4 1.3-.5.2-1 0-1.3-.4-.3-.5-.1-1.1.4-1.4" fill="currentColor"/>
  <path d="M12.1 11.2c-.1 1.4.1 2.8-.1 4.2" stroke="currentColor" stroke-width="1.5" stroke-linecap="round"/>
</svg>
