<svg xmlns="http://www.w3.org/2000/svg" width="20" height="20" viewBox="0 0 24 24" fill="none" stroke="currentColor" stroke-width="1.5" stroke-linecap="round">
  <!-- Hand-drawn share icon with three nodes and connecting lines -->
  <path d="M17.8 4.2c.5-.2 1 0 1.4.3.4.4.6.9.5 1.4-.1.5-.5 1-1 1.2-.5.2-1.1.1-1.5-.3-.4-.4-.5-.9-.4-1.5.1-.5.5-.9 1-1.1" fill="currentColor"/>
  <path d="M17.9 17.1c.5-.1 1 .1 1.4.4.4.4.5.9.4 1.4-.2.5-.6.9-1.1 1.1-.5.1-1.1 0-1.4-.4-.4-.4-.5-1-.3-1.5.2-.5.5-.9 1-1" fill="currentColor"/>
  <path d="M5.8 10.2c.5-.2 1.1 0 1.4.4.4.4.5 1 .3 1.5-.2.5-.6.9-1.1 1-.5.2-1.1 0-1.5-.4-.3-.4-.4-1-.2-1.5.2-.5.6-.9 1.1-1" fill="currentColor"/>
  <path d="M7.9 10.8c2.8-1.4 5.7-2.9 8.5-4.3"/>
  <path d="M7.8 13.1c2.9 1.5 5.8 2.8 8.7 4.2"/>
</svg>
