<svg width="20" height="20" viewBox="0 0 24 24" fill="none" xmlns="http://www.w3.org/2000/svg">
  <!-- Hand-drawn interlocking chain links for charade -->

  <!-- Left link: horizontal oval -->
  <path d="M1.3 8.2 Q1.1 5.8 3.6 5.3 Q6.2 4.9 9.3 5.2 Q12.6 5.6 12.8 8.1 Q13 10.3 12.7 12.4 Q12.4 14.8 9.4 15.2 Q6.3 15.6 3.2 15.3 Q1 14.9 1.1 12.3 Q1 10.2 1.3 8.2" stroke="currentColor" stroke-width="1.5" stroke-linecap="round"/>

  <!-- Right link: horizontal oval, more overlap -->
  <path d="M10.2 11.8 Q10 9.3 12.5 8.8 Q15.1 8.4 18.2 8.7 Q21.1 9.1 21.3 11.6 Q21.5 13.8 21.2 15.9 Q20.9 18.3 17.9 18.7 Q14.8 19.1 11.7 18.8 Q9.5 18.4 9.6 15.8 Q9.5 13.7 10.2 11.8" stroke="currentColor" stroke-width="1.5" stroke-linecap="round"/>
</svg>
