<svg width="20" height="20" viewBox="0 0 24 24" fill="none" xmlns="http://www.w3.org/2000/svg">
  <path d="M13.19 8.69C13.64 8.9 14.06 9.2 14.43 9.57C16.19 11.33 16.19 14.17 14.43 15.93L9.93 20.43C8.17 22.19 5.33 22.19 3.57 20.43C1.81 18.67 1.81 15.83 3.57 14.07L5.32 12.31M18.68 11.69L20.43 9.93C22.19 8.17 22.19 5.33 20.43 3.57C18.67 1.81 15.83 1.81 14.07 3.57L9.57 8.07C7.81 9.83 7.81 12.67 9.57 14.43C9.94 14.8 10.36 15.1 10.81 15.31" stroke="currentColor" stroke-width="2.5" stroke-linecap="round" stroke-linejoin="round"/>
</svg>
