<svg width="20" height="20" viewBox="0 0 24 24" fill="none" xmlns="http://www.w3.org/2000/svg">
  <!-- Hand-drawn shapes for combination -->
  <!-- Top left: wobbly circle -->
  <path d="M6.2 1.8c1.4-.2 2.8.4 3.8 1.4 1 1 1.5 2.5 1.3 3.9-.2 1.5-1 2.8-2.2 3.6-1.2.8-2.8 1-4.2.5-1.3-.5-2.4-1.6-2.8-3-.5-1.4-.2-3 .7-4.1.9-1.2 2.2-2 3.4-2.3" fill="currentColor"/>
  <!-- Top right: wobbly square -->
  <path d="M13.8 1.6c2.8-.2 5.7.1 8.5-.1.2 2.9-.1 5.8.1 8.7-2.9.1-5.8-.1-8.7.1-.1-2.9.2-5.9-.1-8.7" fill="currentColor"/>
  <!-- Bottom left: wobbly triangle -->
  <path d="M6.1 13.2c-1.3 2.7-2.5 5.5-3.9 8.1 2.9.2 5.9-.1 8.8.2-1.5-2.9-3.2-5.6-4.9-8.3" fill="currentColor"/>
  <!-- Bottom right: wobbly diamond -->
  <path d="M18.1 13.2c1.4 1.3 2.6 2.8 4.1 4-1.2 1.5-2.6 2.8-3.9 4.2-1.4-1.3-2.7-2.7-4.1-4.1 1.3-1.4 2.6-2.8 3.9-4.1" fill="currentColor"/>
</svg>
