<svg width="20" height="20" viewBox="0 0 24 24" fill="none" xmlns="http://www.w3.org/2000/svg">
  <!-- Hand-drawn brackets with content for container -->
  <!-- Left bracket -->
  <path d="M8.1 5.2c-.6-.1-1.3.1-1.9-.1-.5.2-.8.6-.9 1.1.1 3.9-.1 7.9.1 11.8.1.5.4.9.9 1 .6-.1 1.3.2 1.9-.1" stroke="currentColor" stroke-width="1.5" stroke-linecap="round"/>
  <!-- Right bracket -->
  <path d="M15.9 5.1c.6.1 1.3-.1 1.9.1.5.1.9.5 1 1-.2 4 .1 8-.1 12-.1.5-.5.8-1 .9-.6.1-1.2-.1-1.8.1" stroke="currentColor" stroke-width="1.5" stroke-linecap="round"/>
  <!-- Outside content (small wobbly squares) -->
  <path d="M1.2 10.6c.7-.1 1.5.1 2.2-.1.1.8-.1 1.7.1 2.5-.8.1-1.6-.1-2.4.1.1-.9-.1-1.7.1-2.5" fill="currentColor"/>
  <path d="M20.6 10.4c.8.1 1.6-.1 2.3.1-.1.8.1 1.6-.1 2.4-.8-.1-1.5.1-2.3-.1.2-.8-.1-1.6.1-2.4" fill="currentColor"/>
  <!-- Inside content (wobbly circle in center) -->
  <path d="M12.1 8.6c1.1-.1 2.2.5 2.9 1.4.7.9 1 2.1.7 3.2-.3 1.1-1 2-2 2.5-1 .5-2.3.5-3.3 0-1-.6-1.8-1.6-2-2.7-.2-1.2.2-2.4 1-3.2.8-.8 1.8-1.3 2.7-1.2" fill="currentColor"/>
</svg>
