<svg width="20" height="20" viewBox="0 0 24 24" fill="none" xmlns="http://www.w3.org/2000/svg">
  <!-- Hand-drawn circle with slash for deletion -->
  <!-- Wobbly filled circle -->
  <path d="M12.2 4.2c2.1-.2 4.2.6 5.7 2 1.6 1.4 2.5 3.4 2.4 5.5-.1 2.2-1.1 4.2-2.7 5.6-1.6 1.4-3.8 2.1-5.9 1.9-2.2-.2-4.2-1.3-5.5-3-1.3-1.6-1.9-3.8-1.5-5.9.4-2.1 1.6-4 3.4-5.1 1.3-.8 2.8-1.1 4.1-1" fill="currentColor"/>
  <!-- Sketchy diagonal slash -->
  <path d="M2.3 21.8c3.2-3.1 6.3-6.4 9.5-9.5 3.1-3.2 6.4-6.3 9.4-9.6" stroke="currentColor" stroke-width="1.5" stroke-linecap="round"/>
</svg>
