<svg width="20" height="20" viewBox="0 0 24 24" fill="none" xmlns="http://www.w3.org/2000/svg">
  <!-- Hand-drawn double tildes for double definition -->
  <!-- Top wavy line -->
  <path d="M3.2 8.3c.8-.6 1.7-1.4 2.7-1.8 1.1-.4 2.3-.3 3.4.1 1 .4 1.9 1.1 2.8 1.6.9.5 1.9.8 2.9.6 1.1-.2 2.1-.8 3.1-1.3.9-.5 1.9-1 2.9-1.3" stroke="currentColor" stroke-width="2" stroke-linecap="round"/>
  <!-- Bottom wavy line -->
  <path d="M3.1 17.9c.9-.5 1.8-1.2 2.8-1.6 1-.4 2.2-.4 3.2 0 1 .4 1.8 1.1 2.7 1.7 1 .5 2 .9 3.1.7 1-.2 2-.7 3-1.2 1-.5 2-1.1 3.1-1.4" stroke="currentColor" stroke-width="2" stroke-linecap="round"/>
</svg>
