<svg width="20" height="20" viewBox="0 0 24 24" fill="none" xmlns="http://www.w3.org/2000/svg">
  <!-- Hand-drawn magnifying glass for hidden word -->
  <!-- Wobbly circle lens -->
  <path d="M11.2 4.3c1.8-.2 3.6.4 5 1.6 1.4 1.2 2.3 2.9 2.4 4.7.1 1.9-.6 3.7-1.9 5-1.3 1.4-3.1 2.2-5 2.2-1.9 0-3.7-.8-5-2.1-1.3-1.3-2.1-3.1-2-5 .1-1.9 1-3.6 2.4-4.8 1.3-1.1 2.9-1.7 4.1-1.6" stroke="currentColor" stroke-width="1.5"/>
  <!-- Sketchy handle -->
  <path d="M15.8 16.1c1.5 1.4 2.9 2.9 4.4 4.3" stroke="currentColor" stroke-width="1.5" stroke-linecap="round"/>
  <!-- Wobbly line inside -->
  <path d="M8.9 11.1c1.3-.1 2.7.1 4 0" stroke="currentColor" stroke-width="1.5" stroke-linecap="round"/>
</svg>
