<svg width="20" height="20" viewBox="0 0 24 24" fill="none" xmlns="http://www.w3.org/2000/svg">
  <!-- Hand-drawn sound waves for homophone -->
  <!-- Small inner wave -->
  <path d="M3.2 8.1c.4.9.6 1.9.8 2.9.2 1 .1 2-.3 2.9-.4.9-.7 1.9-.9 2.8" stroke="currentColor" stroke-width="1.5" stroke-linecap="round"/>
  <!-- Medium wave -->
  <path d="M8.1 4.2c.7 1.9 1.1 3.9 1.2 5.9.1 2.1-.2 4.2-.8 6.2-.5 1.8-.9 3.6-1.4 5.4" stroke="currentColor" stroke-width="1.5" stroke-linecap="round"/>
  <!-- Large outer wave -->
  <path d="M13.2 2.1c.9 2.4 1.4 5 1.6 7.5.2 2.7-.1 5.4-.8 8-.6 2.3-1.2 4.6-2 6.8" stroke="currentColor" stroke-width="1.5" stroke-linecap="round"/>
</svg>
