<svg width="20" height="20" viewBox="0 0 24 24" fill="none" xmlns="http://www.w3.org/2000/svg">
  <!-- Hand-drawn dots and lines for initialism -->
  <!-- Line 1: wobbly dots + lines -->
  <path d="M3.1 7.2c.6-.1 1.2.2 1.6.6.4.5.6 1.1.4 1.7-.2.5-.6 1-1.2 1.1-.6.2-1.3 0-1.7-.5-.4-.5-.5-1.2-.2-1.8.3-.5.7-.9 1.1-1.1" fill="currentColor"/>
  <path d="M8.1 7.2c.6-.1 1.3.1 1.9-.1" stroke="currentColor" stroke-width="1.5" stroke-linecap="round"/>
  <path d="M16.2 7.1c.5.1 1.1.2 1.5.6.4.4.6 1 .5 1.5-.1.6-.5 1.1-1 1.3-.6.3-1.3.2-1.8-.2-.5-.4-.7-1-.6-1.6.1-.7.6-1.2 1.4-1.6" fill="currentColor"/>
  <path d="M21.1 7.1c.6.1 1.2-.1 1.8.1" stroke="currentColor" stroke-width="1.5" stroke-linecap="round"/>
  <!-- Line 2: wobbly dot + longer line -->
  <path d="M3.2 17.1c.5-.1 1.1.1 1.5.5.4.4.6 1 .5 1.6-.2.5-.6 1-1.2 1.2-.5.2-1.2.1-1.6-.3-.5-.4-.6-1.1-.4-1.7.2-.6.7-1.1 1.2-1.3" fill="currentColor"/>
  <path d="M8.2 17.2c4.8-.1 9.7.1 14.5-.1" stroke="currentColor" stroke-width="1.5" stroke-linecap="round"/>
</svg>
