<svg width="20" height="20" viewBox="0 0 24 24" fill="none" xmlns="http://www.w3.org/2000/svg">
  <!-- Hand-drawn tree structure for letter bank -->
  <!-- Lines connecting boxes (behind) -->
  <path d="M12.1 5.2c-2.2 4.5-4.6 8.9-6.9 13.4" stroke="currentColor" stroke-width="1.5" stroke-linecap="round"/>
  <path d="M11.9 5.1c2.3 4.4 4.5 9 6.9 13.5" stroke="currentColor" stroke-width="1.5" stroke-linecap="round"/>
  <!-- Big wobbly square at top -->
  <path d="M8.2 1.3c2.5-.2 5 .1 7.5-.1.2 2.5-.1 5 .1 7.5-2.5.1-5.1-.1-7.6.1-.1-2.5.1-5-.1-7.5" fill="currentColor"/>
  <!-- Bottom left wobbly square -->
  <path d="M1.3 15.2c2.4-.1 4.9.1 7.3-.1.1 2.5-.1 5 .1 7.4-2.5.2-5-.1-7.5.1-.1-2.5.2-5-.1-7.4" fill="currentColor"/>
  <!-- Bottom right wobbly square -->
  <path d="M15.4 15.1c2.4.1 4.8-.1 7.2.1-.1 2.4.1 4.9-.1 7.3-2.4-.1-4.9.1-7.3-.1.2-2.4-.1-4.9.2-7.3" fill="currentColor"/>
</svg>
