<svg width="20" height="20" viewBox="0 0 24 24" fill="none" xmlns="http://www.w3.org/2000/svg">
  <!-- Hand-drawn two spoons facing opposite directions -->
  <!-- Top spoon: bowl on left, handle extending right -->
  <path d="M3 5c-.4 1.2-.2 2.5.5 3.5.7 1 1.8 1.6 3 1.6 1.2 0 2.3-.6 3-1.5.7-1 .9-2.2.6-3.4-.4-1.1-1.3-2-2.4-2.4-1.2-.4-2.5-.2-3.5.5-.7.5-1 1.2-1.2 1.7" stroke="currentColor" stroke-width="1.5" stroke-linecap="round"/>
  <path d="M9 6.5c3.8.1 7.7-.1 11.5.1" stroke="currentColor" stroke-width="1.5" stroke-linecap="round"/>
  <!-- Bottom spoon: handle on left, bowl on right (facing opposite) -->
  <path d="M3.5 17.5c3.8-.1 7.7.1 11.5-.1" stroke="currentColor" stroke-width="1.5" stroke-linecap="round"/>
  <path d="M21 19c.4-1.2.2-2.5-.5-3.5-.7-1-1.8-1.6-3-1.6-1.2 0-2.3.6-3 1.5-.7 1-.9 2.2-.6 3.4.4 1.1 1.3 2 2.4 2.4 1.2.4 2.5.2 3.5-.5.7-.5 1-1.2 1.2-1.7" stroke="currentColor" stroke-width="1.5" stroke-linecap="round"/>
</svg>
