<svg xmlns="http://www.w3.org/2000/svg" width="24" height="24" viewBox="0 0 24 24" fill="none" stroke="currentColor" stroke-width="2" stroke-linecap="round" stroke-linejoin="round">
  <path d="M9.5 2A2.5 2.5 0 0 1 12 4.5V22h-.5"/>
  <path d="M14.5 2A2.5 2.5 0 0 0 12 4.5"/>
  <path d="M4.5 12a2.5 2.5 0 0 0 0 5H8"/>
  <path d="M19.5 12a2.5 2.5 0 0 1 0 5H16"/>
  <path d="M4.5 7a2.5 2.5 0 0 1 0 5H12"/>
  <path d="M19.5 7a2.5 2.5 0 0 0 0 5H12"/>
  <path d="M12 4.5a2.5 2.5 0 0 1-5 0"/>
  <path d="M12 4.5a2.5 2.5 0 0 0 5 0"/>
</svg>
