<svg xmlns="http://www.w3.org/2000/svg" width="24" height="24" viewBox="0 0 24 24" fill="none" stroke="currentColor" stroke-width="1.5" stroke-linecap="round" stroke-linejoin="round">
  <!-- Hand-drawn calendar icon - centered -->
  <!-- Wobbly main rectangle -->
  <path d="M3.5 6.1c5.1-.2 10.2.1 15.3-.1.8.1 1.6-.2 2.1.4.3.5.1 1.2.2 1.8-.1 4.4.1 8.8-.1 13.2-.2.6-.8.8-1.4.7-5.4.1-10.8-.1-16.2.1-.6-.1-1-.6-.9-1.2.1-4.6-.1-9.3.1-13.9.1-.5-.1-1.1.9-1"/>
  <!-- Calendar hooks -->
  <path d="M16.1 2.2c.1 1.1-.1 2.3.1 3.4"/>
  <path d="M8.2 2.1c-.1 1.2.2 2.4-.1 3.5"/>
  <!-- Divider line -->
  <path d="M3.6 10.1c5.6.1 11.4-.1 17 .1"/>
  <!-- Date dots (sketchy) -->
  <path d="M7.7 14.2c.3-.1.6.3.5.5-.1.3-.5.4-.7.2-.2-.2-.1-.6.2-.7"/>
  <path d="M12 14.1c.3.1.5.4.3.7-.2.2-.6.2-.7-.1-.2-.3.1-.7.4-.6"/>
  <path d="M16.3 14.3c.2-.2.6 0 .6.3 0 .3-.3.5-.6.4-.2-.2-.2-.5 0-.7"/>
  <path d="M7.8 18.1c.2-.1.5.1.5.4 0 .3-.4.5-.6.3-.2-.2-.2-.5.1-.7"/>
  <path d="M12.2 18.2c.2-.1.5.2.4.4-.1.3-.4.4-.6.2-.2-.2-.1-.5.2-.6"/>
</svg>
