<svg xmlns="http://www.w3.org/2000/svg" width="20" height="20" viewBox="0 0 24 24" fill="none" stroke="currentColor" stroke-width="2" stroke-linecap="round" stroke-linejoin="round">
  <!-- Hand-drawn mountain with flag -->

  <!-- Mountain with flat top -->
  <path d="M2.1 20.8c2.2-3.4 4.4-6.8 6.6-10.2.3-.4.7-.7 1.2-.7 1.4.1 2.8-.1 4.2.1.5.1.9.4 1.1.8 2.2 3.3 4.4 6.7 6.6 10.1"/>

  <!-- Snow cap / ridge detail -->
  <path stroke-width="1.5" d="M8.2 14.1c1.3-1 2.8-1.6 4.4-1.5 1.2.1 2.3.6 3.2 1.4"/>

  <!-- Flag pole -->
  <path d="M11.9 9.9c.1-2.6-.1-5.2.1-7.8"/>

  <!-- Flag -->
  <path stroke-width="1.5" d="M12.1 2.2c1.4.3 2.7.8 3.9 1.5.1.5-.2.9-.6 1.1-1.2.4-2.4.6-3.6.7"/>
</svg>
