<svg xmlns="http://www.w3.org/2000/svg" width="24" height="24" viewBox="0 0 24 24" fill="none" stroke="currentColor" stroke-width="1.5" stroke-linecap="round" stroke-linejoin="round">
  <!-- Hand-drawn bar chart with slightly crooked bars -->
  <!-- Short bar -->
  <path d="M3.2 14.1c1.1.1 2.2-.1 3.3.1.2 1.8-.1 3.6.1 5.5-1.2-.1-2.3.1-3.4-.1-.1-1.9.1-3.7-.1-5.5"/>
  <!-- Medium bar -->
  <path d="M10.1 10.2c1.2-.1 2.4.1 3.5-.1.1 3.2-.1 6.5.1 9.7-1.2.1-2.4-.1-3.6.1.1-3.3-.1-6.5.1-9.7"/>
  <!-- Tall bar -->
  <path d="M17.2 4.1c1.1.1 2.3-.1 3.4.2-.1 5.2.2 10.5-.1 15.7-1.2-.2-2.4.1-3.5-.1.1-5.3-.1-10.6.2-15.8"/>
</svg>
