<svg xmlns="http://www.w3.org/2000/svg" width="24" height="24" viewBox="0 0 24 24" fill="none" stroke="currentColor" stroke-width="1.5" stroke-linecap="round" stroke-linejoin="round">
  <!-- Hand-drawn lightning bolt with rough edges -->
  <path d="M13.2 2.1c-.8 1.4-1.5 2.9-2.4 4.2-.8 1.4-1.8 2.7-2.5 4.1 1.3.1 2.7-.2 4 .1.9.2 1.9-.1 2.8.2-.5 1.2-1.2 2.3-1.6 3.5-.5 1.2-1.2 2.4-1.5 3.7-.4 1.2-1 2.5-1.3 3.8 1.1-1.1 2.1-2.4 3.1-3.5 1.1-1.2 2-2.5 3.2-3.6-1.2-.1-2.5.2-3.7-.1-.9-.2-2 .1-2.9-.2.7-1.3 1.6-2.5 2.2-3.9.7-1.3 1.3-2.7 2.1-4 .6-1.3 1.4-2.6 2-4"/>
</svg>
