<svg xmlns="http://www.w3.org/2000/svg" width="24" height="24" viewBox="0 0 24 24" fill="none" stroke="currentColor" stroke-width="1.5" stroke-linecap="round" stroke-linejoin="round">
  <!-- Hand-drawn lightning bolt with rough edges - centered -->
  <path d="M13.8 2.1c-.9 1.4-1.6 2.9-2.5 4.2-.9 1.4-1.9 2.7-2.6 4.1 1.4.1 2.8-.2 4.2.1 1 .2 2-.1 2.9.2-.6 1.2-1.3 2.3-1.7 3.5-.5 1.2-1.3 2.4-1.6 3.7-.4 1.2-1.1 2.5-1.4 3.8 1.2-1.1 2.2-2.4 3.3-3.5 1.2-1.2 2.1-2.5 3.4-3.6-1.3-.1-2.6.2-3.9-.1-1-.2-2.1.1-3.1-.2.8-1.3 1.7-2.5 2.4-3.9.8-1.3 1.4-2.7 2.2-4 .7-1.3 1.5-2.6 2.1-4"/>
</svg>
