<svg xmlns="http://www.w3.org/2000/svg" width="24" height="24" viewBox="0 0 24 24" fill="none" stroke="currentColor" stroke-width="1.5" stroke-linecap="round" stroke-linejoin="round">
  <!-- Hand-drawn crescent moon with organic curves -->
  <path d="M20.8 12.5c-.3 2.1-1.2 4.1-2.7 5.6-1.6 1.6-3.7 2.6-5.9 2.7-2.4.2-4.8-.6-6.6-2.1-1.9-1.5-3.1-3.7-3.4-6.1-.3-2.3.4-4.7 1.8-6.5 1.4-1.9 3.4-3.2 5.7-3.6.4 1.2.4 2.5.2 3.8-.3 1.4-.1 2.9.4 4.2.6 1.4 1.6 2.6 2.9 3.4 1.4.9 3 1.3 4.6 1.2 1-.1 2-.3 3-.6"/>
</svg>
