<svg xmlns="http://www.w3.org/2000/svg" width="20" height="20" viewBox="0 0 24 24" fill="none" stroke="currentColor" stroke-width="1.5" stroke-linecap="round" stroke-linejoin="round">
  <!-- Hand-drawn star with slightly uneven points -->
  <path d="M12.1 2.3c.4 1.1.9 2.2 1.2 3.3.4 1.1.7 2.2 1.2 3.2 1.2.1 2.5-.1 3.7.1 1.1.1 2.3-.1 3.5.2-.8.8-1.7 1.5-2.5 2.3-.8.7-1.8 1.3-2.4 2.2.3 1.2.1 2.4.5 3.6.3 1.2.1 2.4.4 3.6-1-.6-2-1.3-3.1-1.8-1-.5-2.1-1-3-1.7-1 .6-1.9 1.4-2.9 1.9-1.1.5-2.1 1.2-3.2 1.6.2-1.2.5-2.4.6-3.6.1-1.2.4-2.4.4-3.6-.9-.7-1.9-1.3-2.7-2.1-.8-.7-1.7-1.4-2.4-2.2 1.2-.1 2.4.1 3.5-.1 1.2-.2 2.5.1 3.7-.1.4-1.1.6-2.3 1.1-3.4.4-1.1.9-2.2 1.4-3.4"/>
</svg>
