<svg xmlns="http://www.w3.org/2000/svg" width="24" height="24" viewBox="0 0 24 24" fill="none" stroke="currentColor" stroke-width="1.5" stroke-linecap="round" stroke-linejoin="round">
  <!-- Hand-drawn sun icon (early bird) -->
  <!-- Wobbly center circle -->
  <path d="M12.1 8.2c1.1-.1 2.2.3 3 1.1.9.8 1.4 2 1.3 3.2-.1 1.1-.6 2.2-1.5 2.9-.9.8-2.1 1.2-3.3 1-1.1-.1-2.1-.7-2.8-1.5-.8-.9-1.1-2.1-.9-3.2.2-1.3.9-2.3 1.9-3 .7-.4 1.5-.6 2.3-.5"/>
  <!-- Sketchy rays -->
  <path d="M12.2 2.1c-.2.5.1 1.1-.1 1.6"/>
  <path d="M11.9 20.2c.1.6-.1 1.1.1 1.7"/>
  <path d="M4.8 5.1c.4.3.7.8 1.2 1.1"/>
  <path d="M17.9 17.8c.4.4.9.8 1.2 1.3"/>
  <path d="M2.2 12.1c.5-.1 1.1.1 1.6-.1"/>
  <path d="M20.1 11.9c.6.1 1.1-.1 1.7.1"/>
  <path d="M5 18.9c.3-.4.9-.7 1.2-1.2"/>
  <path d="M18.1 6.2c.3-.5.9-.8 1.2-1.3"/>
</svg>
