<svg xmlns="http://www.w3.org/2000/svg" width="20" height="20" viewBox="0 0 24 24" fill="none" stroke="currentColor" stroke-width="1.5" stroke-linecap="round" stroke-linejoin="round">
  <!-- Hand-drawn target icon with wobbly circles -->
  <!-- Outer ring -->
  <path d="M12.3 2.2c2.6-.1 5.1 1 6.9 2.8 1.9 1.8 3 4.4 2.9 7-.1 2.7-1.3 5.2-3.3 7-1.9 1.7-4.5 2.7-7.1 2.5-2.5-.1-4.9-1.2-6.6-3.1C3.2 16.5 2.2 14 2.3 11.4c.1-2.8 1.4-5.4 3.5-7.1 2-1.6 4.5-2.3 6.5-2.1"/>
  <!-- Middle ring -->
  <path d="M12.1 6.3c1.6.1 3.1.7 4.2 1.9 1.2 1.1 1.8 2.7 1.7 4.3-.1 1.5-.8 2.9-1.9 3.9-1.2 1.1-2.8 1.6-4.4 1.5-1.5-.1-3-.8-4-1.9-1.1-1.2-1.7-2.8-1.5-4.4.2-1.7.9-3.1 2.2-4.1 1-0.8 2.3-1.3 3.7-1.2"/>
  <!-- Center dot (wobbly) -->
  <path d="M12.2 10.3c.9-.1 1.8.7 1.9 1.6.1 1-.6 1.9-1.5 2-1 .1-1.9-.5-2-1.5-.2-1.1.6-2 1.6-2.1"/>
</svg>
