<svg width="200" height="50" xmlns="http://www.w3.org/2000/svg">
  <!-- Hand-drawn difficulty 3: three orange, one gray -->
  <path d="M25.2 5.1c5.4.2 10.5 2.3 14.1 6 3.7 3.8 5.6 9 5.3 14.3-.3 5.2-2.7 10.1-6.6 13.5-4 3.5-9.3 5.2-14.6 4.7-5.2-.5-10-3.1-13.2-7.2-3.3-4.1-4.8-9.5-4.1-14.7.7-5.3 3.5-10.1 7.7-13.2 3.9-2.9 8.7-4.1 11.4-3.4" fill="#eb9560"/>
  <path d="M75.1 5.2c5.3.1 10.4 2.2 14 5.9 3.6 3.7 5.5 8.9 5.2 14.1-.3 5.1-2.6 9.9-6.5 13.3-3.9 3.4-9.1 5.1-14.3 4.6-5.1-.5-9.8-3-12.9-7-3.2-4-4.7-9.3-4-14.4.7-5.2 3.4-9.9 7.5-13 3.8-2.8 8.5-4 11.2-3.5" fill="#eb9560"/>
  <path d="M125.2 5.1c5.4.2 10.5 2.3 14.1 6 3.7 3.8 5.6 9 5.3 14.3-.3 5.2-2.7 10.1-6.6 13.5-4 3.5-9.3 5.2-14.6 4.7-5.2-.5-10-3.1-13.2-7.2-3.3-4.1-4.8-9.5-4.1-14.7.7-5.3 3.5-10.1 7.7-13.2 3.9-2.9 8.7-4.1 11.4-3.4" fill="#eb9560"/>
  <path d="M175.1 5.2c5.3.1 10.4 2.2 14 5.9 3.6 3.7 5.5 8.9 5.2 14.1-.3 5.1-2.6 9.9-6.5 13.3-3.9 3.4-9.1 5.1-14.3 4.6-5.1-.5-9.8-3-12.9-7-3.2-4-4.7-9.3-4-14.4.7-5.2 3.4-9.9 7.5-13 3.8-2.8 8.5-4 11.2-3.5" fill="#E2E2E2"/>
</svg>
