<?xml version="1.0" encoding="UTF-8"?>
<svg id="Layer_1" data-name="Layer 1" xmlns="http://www.w3.org/2000/svg" xmlns:xlink="http://www.w3.org/1999/xlink" viewBox="0 0 332.64 332.64">
  <defs>
    <style>
      .cls-1 {
        clip-path: url(#clippath);
      }

      .cls-2 {
        fill: none;
      }

      .cls-2, .cls-3 {
        stroke-width: 0px;
      }

      .cls-4 {
        clip-path: url(#clippath-1);
      }

      .cls-5 {
        clip-path: url(#clippath-3);
      }

      .cls-6 {
        clip-path: url(#clippath-2);
      }

      .cls-7 {
        fill: #E2E2E2;
        stroke: #E2E2E2;
      }

      .cls-8 {
        fill: #b0d236;
        stroke: #b0d236;
      }

      .cls-3 {
        fill: #fff;
      }
    </style>
    <clipPath id="clippath">
      <rect class="cls-2" width="332.64" height="332.64"/>
    </clipPath>
    <clipPath id="clippath-1">
      <rect class="cls-2" width="332.64" height="332.64"/>
    </clipPath>
    <clipPath id="clippath-2">
      <rect class="cls-2" width="332.64" height="332.64"/>
    </clipPath>
    <clipPath id="clippath-3">
      <rect class="cls-2" width="332.64" height="332.64"/>
    </clipPath>
  </defs>
  <g id="figure_1" data-name="figure 1">
    <g id="patch_1" data-name="patch 1">
      <path class="cls-3" d="m-202.68,380.16h720V-51.84H-202.68v432Z"/>
    </g>
    <g id="axes_1" data-name="axes 1">
      <g id="patch_2" data-name="patch 2">
        <g class="cls-1">
          <path class="cls-8" d="m99.79,149.69c13.23,0,25.92-5.26,35.28-14.61,9.36-9.36,14.61-22.05,14.61-35.28s-5.26-25.92-14.61-35.28c-9.36-9.36-22.05-14.61-35.28-14.61s-25.92,5.26-35.28,14.61c-9.36,9.36-14.61,22.05-14.61,35.28s5.26,25.92,14.61,35.28c9.36,9.36,22.05,14.61,35.28,14.61Z"/>
        </g>
      </g>
      <g id="patch_3" data-name="patch 3">
        <g class="cls-4">
          <path class="cls-7" d="m232.85,149.69c13.23,0,25.92-5.26,35.28-14.61,9.36-9.36,14.61-22.05,14.61-35.28s-5.26-25.92-14.61-35.28c-9.36-9.36-22.05-14.61-35.28-14.61s-25.92,5.26-35.28,14.61c-9.36,9.36-14.61,22.05-14.61,35.28s5.26,25.92,14.61,35.28c9.36,9.36,22.05,14.61,35.28,14.61Z"/>
        </g>
      </g>
      <g id="patch_4" data-name="patch 4">
        <g class="cls-6">
          <path class="cls-7" d="m99.79,282.74c13.23,0,25.92-5.26,35.28-14.61,9.36-9.36,14.61-22.05,14.61-35.28s-5.26-25.92-14.61-35.28c-9.36-9.36-22.05-14.61-35.28-14.61s-25.92,5.26-35.28,14.61c-9.36,9.36-14.61,22.05-14.61,35.28s5.26,25.92,14.61,35.28c9.36,9.36,22.05,14.61,35.28,14.61Z"/>
        </g>
      </g>
      <g id="patch_5" data-name="patch 5">
        <g class="cls-5">
          <path class="cls-7" d="m232.85,282.74c13.23,0,25.92-5.26,35.28-14.61,9.36-9.36,14.61-22.05,14.61-35.28s-5.26-25.92-14.61-35.28c-9.36-9.36-22.05-14.61-35.28-14.61s-25.92,5.26-35.28,14.61c-9.36,9.36-14.61,22.05-14.61,35.28s5.26,25.92,14.61,35.28c9.36,9.36,22.05,14.61,35.28,14.61Z"/>
        </g>
      </g>
    </g>
  </g>
</svg>